<?xml version="1.0" encoding="utf-8"?>
<!DOCTYPE svg PUBLIC "-//W3C//DTD SVG 1.0//EN" "http://www.w3.org/TR/2001/REC-SVG-20010904/DTD/svg10.dtd">
<svg version="1.0" xmlns="http://www.w3.org/2000/svg" width="60px" height="60px" viewBox="0 0 489 482" preserveAspectRatio="xMidYMid meet" >
 <g fill="white">
  <path d="M39.50 455.75 c0 -0.80 0.30 -1.25 0.75 -1.25 0.65 0 0.75 -4.55 0.75 -38 0 -33.45 -0.10 -38 -0.75 -38 -0.60 0 -0.75 -0.90 -0.75 -5 0 -4.10 0.15 -5 0.75 -5 0.65 0 0.75 -4.45 0.70 -37.35 -0.05 -20.60 -0.20 -36.90 -0.30 -36.25 -0.10 0.60 -0.45 1.10 -0.70 1.10 -0.25 0 -0.45 -53.90 -0.45 -139.75 l0 -139.75 2.15 0 c1.15 0 2.95 -0.15 4 -0.30 1.45 -0.25 1.85 -0.15 1.85 0.40 0 1.20 4.50 1.45 24.95 1.40 22.55 -0.05 30.55 -0.40 30.55 -1.25 0 -0.40 2.15 -0.60 7.90 -0.65 9.50 -0.10 12.60 0.20 12.60 1.25 0 0.65 1.60 0.70 11.70 0.55 6.45 -0.10 11.90 -0.35 12.10 -0.55 0.25 -0.20 0.10 -0.60 -0.30 -0.85 -0.45 -0.30 21.50 -0.50 57.90 -0.50 50.20 0 58.60 0.10 58.60 0.70 0 0.40 -0.30 0.85 -0.60 0.95 -0.35 0.15 0.35 0.30 1.60 0.30 2 0.05 8.15 0.95 12.20 1.85 1.25 0.25 1.40 0.20 1.20 -0.70 -0.20 -0.70 -0.10 -0.95 0.35 -0.80 0.35 0.15 0.75 0.65 0.85 1.10 0.20 0.65 1.45 1.10 4.70 1.75 2.45 0.50 6.05 1.35 7.95 1.90 1.95 0.55 4.85 1.35 6.50 1.75 11.05 2.95 23.55 7.90 36.60 14.45 9.05 4.55 10.10 5 10.50 4.15 0.35 -0.80 1.20 -0.40 7.80 3.70 4.05 2.55 10.20 6.75 13.70 9.35 5.60 4.20 6.20 4.75 5.45 5.35 -0.80 0.55 -0.70 0.80 1.10 2.45 1.10 0.95 2.65 2.25 3.40 2.85 l1.35 1.10 -0.30 -1.65 -0.35 -1.65 2.15 1.65 c1.15 0.90 6.55 6.10 12.05 11.60 7.25 7.25 9.75 10.10 9.35 10.50 -1 1 -0.60 1.70 3.25 6.55 3.45 4.30 3.90 4.70 4.50 3.95 0.35 -0.50 0.70 -0.80 0.80 -0.65 9.85 12.10 23.65 36.20 29.15 51 6.65 17.80 8.10 22.75 11.50 39.40 4.05 19.75 4.90 49.90 2 70.60 -1.65 12.05 -2.35 15.25 -3 14.35 -0.80 -1.15 -1.25 -1.05 -1.25 0.15 0 1 -4.05 17.25 -4.80 19.25 -0.25 0.70 0 0.60 0.80 -0.40 0.60 -0.75 1.20 -1.30 1.35 -1.20 0.45 0.50 -3.75 12.85 -7.60 22.35 -2.35 5.65 -9.50 20.20 -12.50 25.30 -6.80 11.55 -14.65 22.50 -23.45 32.70 -5.85 6.75 -12.80 14 -13.45 14 -0.30 0 -0.15 -0.40 0.30 -0.90 0.50 -0.50 0.85 -1.30 0.85 -1.75 0 -0.45 0.50 -1.15 1.10 -1.55 0.60 -0.45 1 -0.85 0.85 -0.95 -0.10 -0.15 -3.70 2.95 -8.05 6.85 -6.95 6.30 -7.75 7.15 -7.10 7.85 0.65 0.70 0.05 1.30 -5.40 5.55 -3.40 2.60 -7.60 5.75 -9.40 7 -5.80 4.05 -22.65 13.90 -23.75 13.90 -0.20 0 -0.15 -0.45 0 -1 0.15 -0.55 0.20 -1 0.10 -1 -0.10 0 -3.45 1.55 -7.35 3.45 -5.95 2.85 -7 3.50 -6.05 3.80 1.50 0.45 1 0.80 -3.10 2.45 -4 1.55 -3.80 1.55 -3.50 0.30 0.15 -0.55 0.15 -1 0 -1 -0.10 0 -2.10 0.75 -4.40 1.70 -3.90 1.55 -6.85 2.50 -16.35 5.30 -3.05 0.90 -3.55 1.20 -3.10 1.80 0.65 0.75 0.85 0.65 -3 1.65 -1.25 0.35 -2.65 0.75 -3.10 0.85 -0.60 0.20 -0.90 0 -0.90 -0.50 0 -1.05 -1.05 -1 -7.15 0.25 -2.80 0.60 -8.90 1.60 -13.60 2.20 -4.65 0.65 -7.65 1.15 -6.65 1.20 2.50 0.05 2.80 0.85 0.50 1.25 -4.50 0.75 -8.15 -0.05 -4.10 -0.90 0.70 -0.15 -2.55 -0.15 -7.15 -0.05 l-8.45 0.20 0.95 -1.05 c0.80 -0.95 0.80 -1.10 0.10 -1.55 -0.65 -0.40 -0.25 -0.95 2.55 -3.40 19.50 -16.80 32.30 -43.30 33.80 -70.05 l0.35 -6.40 1.70 0 c1.30 0 2.60 0.65 5.35 2.75 9.20 6.90 17 17.95 21.25 29.90 1.75 5.05 1.90 5.75 0.80 4.85 -0.45 -0.35 -0.85 -0.55 -0.95 -0.45 -0.25 0.30 1.40 8.30 1.80 8.70 0.20 0.20 0.95 -0.10 1.75 -0.65 0.75 -0.50 1.95 -1.15 2.65 -1.35 1.05 -0.30 7.25 -3.50 8 -4.15 0.15 -0.10 -0.15 -0.45 -0.60 -0.80 -0.75 -0.55 -0.45 -0.85 2.45 -2.50 2.80 -1.60 3.45 -1.80 4.50 -1.35 1.05 0.50 1.75 0.15 6.15 -2.80 2.75 -1.80 5 -3.45 5 -3.65 0 -0.25 -0.35 -0.55 -0.80 -0.70 -0.60 -0.25 0.50 -1.30 4.10 -4.10 22.70 -17.40 40.65 -40.20 52.15 -66.15 2.35 -5.30 2.95 -6.30 3.80 -6.15 0.85 0.10 1.30 -0.70 3.10 -6 2.10 -6.20 5.30 -17.55 5.95 -21 0.25 -1.60 0.15 -1.90 -0.55 -1.90 -0.70 0 -0.80 -0.30 -0.60 -1.35 0.95 -4.90 2.40 -16.60 2.85 -23.25 0.90 -13.20 -1.20 -35.25 -4.35 -46.35 -0.70 -2.55 -0.70 -2.75 0.10 -3.35 0.75 -0.60 0.80 -0.90 0.25 -3.30 -0.95 -3.95 -5.70 -18.25 -7.20 -21.55 -1 -2.15 -1.55 -2.85 -2.20 -2.75 -0.65 0.15 -1.50 -1.15 -3.70 -5.45 -4 -7.90 -10.65 -19 -14.85 -24.85 -3.30 -4.45 -3.50 -4.95 -2.75 -5.55 0.80 -0.55 0.60 -1 -2.50 -4.70 -3.20 -3.80 -4.35 -4.65 -5 -3.60 -0.15 0.25 -2.30 -1.65 -4.75 -4.15 -3.95 -4 -4.40 -4.60 -3.80 -5.30 0.65 -0.70 0.40 -1.10 -1.90 -3.30 -6.35 -6.05 -6.30 -6 -7.40 -5.25 -0.90 0.55 -1.25 0.45 -2.40 -0.55 -0.70 -0.65 -1.40 -1.20 -1.55 -1.30 -0.15 -0.10 0.15 -0.50 0.65 -0.85 0.85 -0.65 0.60 -0.95 -3.25 -3.80 -5.10 -3.75 -6.15 -4.30 -7.05 -3.50 -0.55 0.45 -1.50 0.05 -4.40 -1.90 -2.05 -1.35 -6.40 -3.90 -9.70 -5.75 -5.80 -3.20 -5.90 -3.30 -4 -3.35 2 0 1.95 0 -2.35 -2.20 -6 -3.05 -20.15 -8.75 -21.75 -8.75 -0.35 0 -0.65 0.35 -0.65 0.75 0 1 -0.35 0.95 -4.35 -0.50 -3.85 -1.35 -13.35 -3.75 -15 -3.75 -1.35 0 -1.50 -0.75 -0.35 -1.40 0.90 -0.50 -4.20 -1.60 -11.80 -2.60 -4.35 -0.55 -14.65 -0.65 -15.20 -0.15 -0.15 0.20 0.20 0.65 0.80 1 0.95 0.50 -5.95 0.60 -36.85 0.60 -32.40 0 -37.75 -0.15 -36.25 -0.70 2.10 -0.80 6.25 -0.70 -37.30 -1.05 l-31.05 -0.30 -0.30 1.20 c-0.40 1.60 -0.30 170.05 0.05 169.65 0.20 -0.20 0.45 -3.15 0.65 -6.65 0.15 -3.50 0.30 14.75 0.35 40.55 0.05 25.75 0 46.85 -0.15 46.85 -0.10 0 -0.45 -0.75 -0.70 -1.60 -0.30 -1.10 -0.50 10.15 -0.50 32 -0.05 26.50 0.10 33.65 0.60 33.85 0.30 0.10 4.50 0.25 9.25 0.40 7 0.15 8.60 0.10 8.60 -0.45 0 -0.55 1.40 -0.70 6.75 -0.70 6 0 6.70 0.10 6.40 0.80 -0.30 0.75 0.25 0.80 5.40 0.55 12.30 -0.65 19.10 -2.15 27.35 -6.10 5.05 -2.40 10.10 -5.55 10.10 -6.30 0 -0.25 -0.45 -0.45 -1 -0.45 -0.70 0 0.05 -0.95 2.85 -3.70 3.25 -3.10 3.95 -3.55 4.55 -3 0.35 0.40 0.75 0.70 0.85 0.70 0.40 0 2.90 -5 3.80 -7.60 1.20 -3.55 1.30 -7.40 0.20 -7.40 -0.45 0 -0.75 -0.45 -0.75 -1.15 0 -4.45 -4.55 -16.55 -9.55 -25.35 -4.65 -8.20 -3.85 -7.85 -8.25 -3.50 -2.05 2.05 -4.55 4.95 -5.55 6.40 -1.65 2.40 -1.90 2.55 -2.65 1.85 -0.80 -0.75 -1.05 -0.50 -2.90 3.10 -2.70 5.15 -3.60 7.95 -2.95 8.60 0.40 0.40 0.15 0.55 -0.80 0.55 -1.60 0 -1.80 -0.35 -3.65 -7 -3 -10.85 -3.25 -12.20 -2.40 -12.85 0.70 -0.50 0.70 -1.20 -0.25 -7.25 -0.55 -3.65 -1.15 -7.70 -1.30 -9 -0.20 -1.60 -0.55 -2.40 -1.05 -2.40 -0.60 0 -0.70 -1.65 -0.70 -10.20 0 -9.75 0.05 -10.20 1 -10.45 0.75 -0.20 1 -0.70 1 -1.95 0 -0.90 0.55 -4.80 1.20 -8.65 0.70 -3.85 1.20 -7.05 1.10 -7.10 -0.15 -0.15 -7.30 2.50 -8.50 3.20 -0.85 0.45 -0.80 0.55 0.50 0.85 1.35 0.35 1.15 0.55 -3.55 2.95 -6.40 3.30 -10.45 6.10 -14.70 10.15 -2.80 2.60 -3.75 3.20 -5.05 3.20 l-1.65 0 0.30 -6.60 c0.80 -16.80 5.70 -31.65 14.75 -44.65 5.50 -7.95 13.60 -16.35 19.85 -20.60 0.95 -0.65 1.75 -1.40 1.75 -1.70 0 -0.50 -7.90 -4.45 -8.95 -4.45 -0.80 0 -0.65 -0.55 0.35 -1.30 0.80 -0.60 0.75 -0.65 -0.45 -0.70 -0.70 0 -1.45 0.20 -1.75 0.45 -0.25 0.30 -1.95 0.10 -4.45 -0.50 -2.20 -0.50 -5.85 -1.10 -8.10 -1.25 -3.85 -0.35 -5 -0.75 -3.50 -1.35 0.30 -0.15 -0.65 -0.30 -2.15 -0.30 -3.65 -0.10 -5 -0.50 -5 -1.55 0 -1.25 7.60 -7.85 15.15 -13.20 3.15 -2.25 3.45 -2.35 4.05 -1.55 0.60 0.85 0.85 0.80 4.10 -1.15 9.90 -5.90 20.25 -10.30 30.20 -12.80 3.45 -0.85 6.35 -1.60 6.50 -1.70 0.45 -0.35 -3.70 -3.60 -10 -7.80 -5.15 -3.45 -17.20 -9.85 -20.65 -11 -1.70 -0.55 -0.80 -1.20 2.80 -2 6.25 -1.45 17.75 -3.25 22.65 -3.60 4.50 -0.35 5.40 -0.65 4.05 -1.55 -0.65 -0.40 2.80 -1.05 6.30 -1.10 1.35 -0.05 1.85 0.15 1.85 0.70 0 0.60 0.90 0.75 5.15 0.75 13 0 38.80 3.35 44.50 5.75 1.50 0.65 1 -1.55 -1.65 -6.95 -3.25 -6.60 -5.65 -9.90 -7.20 -9.70 -0.80 0.10 -1.85 -0.65 -3.85 -2.65 -2.90 -3 -10.30 -8.70 -11.95 -9.20 -1.50 -0.50 -1.20 -1.65 0.55 -2 3.35 -0.75 14.65 1.20 23.50 4.05 2.95 0.95 8.20 3.15 11.75 4.90 5.65 2.85 6.45 3.15 6.95 2.45 0.55 -0.70 1.05 -0.50 4.35 1.80 5.35 3.65 10.80 8.50 14.35 12.55 2.65 3.10 2.95 3.65 2.45 4.50 -0.50 0.80 -0.45 1.15 0.40 2.10 1.65 1.80 5.95 8.40 7.95 12.20 1.75 3.30 3.20 5.35 2.65 3.70 -0.25 -0.70 -1.80 -7.75 -2.90 -13.10 -0.25 -1.30 -0.65 -4.55 -0.80 -7.15 -0.25 -3.35 -0.55 -4.75 -1 -4.75 -0.35 0 -0.75 0.30 -0.85 0.65 -0.15 0.30 -0.30 -3 -0.30 -7.40 -0.05 -13.75 2.25 -28.55 6.40 -41.25 1.35 -4.20 1.40 -4.25 3.15 -4.40 l1.80 -0.15 0.30 5.40 c0.20 2.95 0.50 7.45 0.75 9.90 0.40 3.80 0.35 4.60 -0.25 5.10 -0.65 0.50 -0.70 1.25 -0.20 5.50 2.65 22.80 10.20 50.80 20.10 74.55 1.20 2.80 1.70 3.50 2.20 3.05 0.80 -0.65 1.65 0.55 3.65 5.55 1.45 3.65 4.20 9 8.40 16.25 3 5.15 4.60 9.35 4.95 12.70 0.30 2.65 0.20 3.05 -0.75 3.60 -1.20 0.80 -1.40 1.95 -0.30 1.95 0.95 0 0.95 0.15 -0.20 3.50 -0.70 2.10 -0.80 3.05 -0.40 4 0.85 1.95 11.50 16 13.95 18.30 3.20 3.05 6.65 5.55 10.35 7.50 5.90 3.05 6.05 3.30 6.05 12.10 0 7.40 -1.10 12.35 -3.60 16.20 -2.95 4.65 -5.90 5.95 -9.40 4.15 -0.80 -0.40 -1.75 -0.60 -2.15 -0.45 -0.40 0.15 -0.85 -0.10 -1.05 -0.55 -0.25 -0.70 -0.50 -0.70 -2.20 0.20 -2.10 1.05 -6.35 2.30 -9.25 2.75 -1.65 0.20 -1.85 0.15 -1.35 -0.45 0.35 -0.40 1.35 -1.20 2.25 -1.75 1.80 -1.10 4.25 -4.35 4.25 -5.60 0 -1.10 -7.65 -4.10 -9.45 -3.75 -0.70 0.15 -2.30 0.60 -3.50 1.05 -2.40 0.90 -10.05 1.70 -10.05 1.05 0 -0.20 1.15 -1.50 2.50 -2.80 1.40 -1.30 2.50 -2.60 2.50 -2.80 0 -0.25 -1.80 -0.45 -4 -0.50 -4.35 -0.10 -7 -0.50 -7 -1.10 0 -0.25 1 -0.80 2.25 -1.25 2.90 -1.15 5.55 -4.30 3.55 -4.30 -0.90 0 -1.95 -3.50 -3.05 -10 -0.45 -2.60 -1.35 -5.90 -2.05 -7.30 -1.35 -2.85 -4.45 -5.60 -8 -7.05 -1.70 -0.70 -2.20 -1.15 -2.10 -1.90 0.15 -0.85 -0.35 -1.10 -3.05 -1.65 -2.30 -0.50 -3.25 -0.55 -3.50 -0.15 -0.85 1.40 1.30 14.20 3.60 20.95 1 3.05 1.30 3.45 3.35 4.50 1.20 0.60 2.95 1.10 3.90 1.10 2.20 0 1.90 0.90 -0.80 2.40 -1.15 0.65 -2 1.40 -1.85 1.65 0.15 0.20 1.40 0.55 2.75 0.75 1.40 0.20 2.50 0.50 2.50 0.75 0 0.25 -0.80 0.95 -1.75 1.55 -0.95 0.65 -1.75 1.40 -1.70 1.65 0 0.30 1.40 2.55 3.10 5 2.70 3.90 3.35 4.55 5 4.95 1.30 0.35 2.40 0.30 3.40 -0.05 2.25 -0.85 2.40 0.25 0.30 2.20 -1.05 0.90 -1.85 1.85 -1.85 2.05 0 0.20 0.65 0.75 1.45 1.25 1.85 1.05 6.55 1.10 9.30 0.05 4 -1.55 3.95 -1.55 3.10 0.10 -1.70 3.20 -6.95 7.30 -14.50 11.25 -3.45 1.80 -9.65 3.45 -12.95 3.45 -1.80 0 -2.40 0.20 -2.40 0.75 0 0.95 -2.35 0.95 -7 0.05 l-3.25 -0.60 -0.15 -2.05 c-0.10 -1.15 0.30 -3.60 0.85 -5.40 1.45 -4.65 2.20 -11.40 1.65 -14.90 -0.40 -2.60 -0.35 -2.85 0.45 -2.85 1.10 0 0.95 -1.35 -0.90 -7 -2.30 -7.05 -6.65 -14 -11.65 -18.70 -2.45 -2.30 -3.75 -2.85 -4.10 -1.70 -0.15 0.35 -1.60 -0.30 -3.95 -1.75 -2.10 -1.30 -4.10 -2.35 -4.50 -2.35 -0.45 0 -0.20 -0.40 0.55 -1 l1.25 -1 -2.75 0.35 c-3.25 0.45 -12.10 0.45 -14.35 0 -1.40 -0.30 -1.65 -0.20 -1.65 0.65 0 0.90 -0.10 0.90 -2.60 0.20 -3.60 -1.05 -8.90 -3.25 -8.90 -3.75 0 -0.20 0.35 -0.60 0.80 -0.85 0.65 -0.35 0.40 -0.70 -1.40 -1.75 -1.20 -0.70 -3.85 -2.80 -5.85 -4.65 -3.15 -2.90 -3.75 -3.30 -4.55 -2.80 -0.80 0.50 -1.15 0.25 -2.65 -2.05 -2.25 -3.45 -4.30 -7.45 -5.15 -10.30 -0.90 -2.95 -0.90 -3.55 0.10 -3.55 0.60 0 0.75 -0.30 0.50 -1.30 -0.20 -0.75 -0.45 -2 -0.60 -2.90 -0.55 -3.35 -0.75 -3.80 -1.50 -3.80 -1.50 0 -0.35 -1.25 1.25 -1.40 1.20 -0.15 1.90 0.15 2.80 1.10 0.65 0.70 2.25 1.95 3.55 2.80 1.30 0.80 2.15 1.50 1.80 1.50 -0.35 0 -0.60 0.35 -0.60 0.75 0 1.15 3.80 2 9.25 2 4.65 0 5.25 -0.10 8.30 -1.60 1.75 -0.90 4.10 -2.40 5.20 -3.35 1.85 -1.60 1.95 -1.80 1.10 -2.40 -0.80 -0.60 -0.75 -0.80 0.90 -3.10 1.85 -2.65 3.75 -7.15 3.75 -8.95 0 -0.65 -0.75 -1.90 -1.75 -2.85 -1.70 -1.65 -1.75 -1.70 -0.70 -2.25 1 -0.55 0.90 -0.65 -1.40 -2.10 -5.75 -3.70 -12.65 -3.45 -21.05 0.80 -3.60 1.80 -3.70 1.90 -2.35 2.25 l1.40 0.35 -2.45 1.65 c-1.35 0.95 -3.10 2.40 -3.90 3.25 -1.35 1.40 -1.55 1.45 -2.35 0.75 -0.75 -0.70 -1 -0.55 -2.70 1.40 -3.40 4 -7.75 12.25 -8.95 17.10 -0.30 1.30 -0.25 1.40 0.70 1.15 0.80 -0.20 1 -0.10 0.80 0.55 -1.60 5.45 -1.55 13.35 0.20 19.45 2.35 8.40 9.05 20.50 17.50 31.65 2.90 3.80 8.45 11.50 11.60 16.05 3 4.35 3.25 4.85 2.55 5.55 -0.70 0.70 -0.55 1.15 1.45 4.45 1.25 2.05 3 5.10 3.95 6.80 0.95 1.75 1.90 3.15 2.15 3.15 0.20 0 0.05 -0.55 -0.40 -1.25 -0.85 -1.30 -1.10 -3.25 -0.35 -3.25 1.05 0 8.05 16.80 10.05 24.30 1.35 4.90 1.35 5.05 0.40 4.80 -0.90 -0.20 -0.95 -0.05 -0.70 1.20 0.85 3.95 1.80 11.80 1.80 14.85 0 2.80 0.15 3.35 0.85 3.35 0.70 0 0.75 0.55 0.50 5.15 -0.70 11.90 -4.65 22.75 -12.30 33.60 -8.25 11.75 -20.55 22.55 -34.20 30 -2.95 1.65 -3.60 1.80 -4.65 1.30 -1.05 -0.45 -1.80 -0.30 -4.85 1 -1.95 0.85 -5.50 2.25 -7.85 3.05 -2.35 0.80 -4.55 1.55 -4.95 1.70 -0.55 0.20 -0.50 0.35 0.20 0.90 0.80 0.55 0.55 0.70 -2.05 1.45 -2.75 0.75 -19.65 3.85 -21.05 3.85 -0.35 0 -0.65 -0.35 -0.65 -0.80 0 -0.75 -0.45 -0.80 -3.35 -0.50 -1.90 0.15 -7.85 0.45 -13.30 0.65 -8.60 0.25 -9.75 0.40 -8.50 0.95 1.15 0.50 -8.50 0.65 -51.20 0.65 l-52.65 0.05 0 -1.25z m94.15 -0.10 c-0.90 -0.10 -2.40 -0.10 -3.25 0 -0.90 0.10 -0.20 0.20 1.60 0.20 1.80 0 2.50 -0.10 1.65 -0.20z m21.85 -105.15 c-0.45 -0.85 -1.50 -1.40 -1.50 -0.80 0 0.80 0.75 1.80 1.30 1.80 0.60 0 0.60 -0.20 0.20 -1z m149.65 -112.60 c2.10 -1.40 2.85 -2.35 2.85 -3.65 0 -0.55 -1.75 -4.50 -3.90 -8.75 -2.15 -4.25 -4.50 -9.15 -5.25 -10.85 -0.80 -1.75 -1.60 -3.15 -1.90 -3.15 -1.25 0 0.55 12.95 2.60 18.85 1.85 5.20 3.35 8.65 3.75 8.65 0.15 0 1 -0.50 1.85 -1.10z"/>
  <path d="M206.50 446 c0 -0.60 1.40 -1.25 1.80 -0.85 0.15 0.15 -0.20 0.50 -0.75 0.85 -0.75 0.35 -1.05 0.35 -1.05 0z"/>
  <path d="M385.50 388.15 c0 -0.65 1.45 -1.90 1.75 -1.55 0.15 0.15 -0.20 0.65 -0.75 1.15 -0.55 0.50 -1 0.65 -1 0.40z"/>
  <path d="M104.65 375.25 c0 -1.65 0.10 -2.25 0.20 -1.35 0.10 0.90 0.10 2.25 0 3 -0.10 0.75 -0.20 0 -0.20 -1.65z"/>
  <path d="M315 326.30 c0 -0.10 0.80 -0.65 1.75 -1.25 0.95 -0.55 1.75 -1.35 1.75 -1.80 0 -0.40 0.30 -0.75 0.65 -0.75 1.35 0 1.35 0.70 0 1.60 -1.85 1.25 -4.15 2.50 -4.15 2.20z"/>
  <path d="M282.60 286.45 c-0.35 -0.55 -0.55 -1.15 -0.45 -1.25 0.35 -0.35 1.45 1.20 1.25 1.80 -0.10 0.30 -0.45 0.05 -0.80 -0.55z"/>
  <path d="M260.65 272.15 c0.45 -0.10 1.25 -0.10 1.75 0 0.45 0.15 0.05 0.25 -0.90 0.25 -0.95 0 -1.35 -0.10 -0.85 -0.25z"/>
  <path d="M231.45 215 c0.65 -0.55 1.50 -1 1.95 -1 0.95 0 0.75 0.15 -1.40 1.20 l-1.75 0.85 1.20 -1.05z"/>
  <path d="M244 213 c-1.05 -0.35 -1.05 -0.40 -0.25 -0.45 0.55 0 1.35 0.20 1.75 0.45 0.90 0.55 0.25 0.55 -1.50 0z"/>
  <path d="M316.35 195.90 c-2.80 -5.80 -4.85 -10.35 -6.30 -14.05 -4.05 -10.20 -7.55 -25 -7.55 -31.85 0 -3.60 1.15 -14.15 1.85 -16.85 0.20 -0.85 0.05 -1.15 -0.55 -1.15 -0.45 0 -0.80 -0.40 -0.80 -1 0 -2.20 2.70 -13.10 4.85 -19.65 l2.25 -6.90 1.85 0.15 1.80 0.15 0.10 2.75 c0.45 11.10 1.20 27.20 1.45 29.45 0.30 2.75 -0.40 3.20 -1.30 0.85 -0.25 -0.65 -0.35 0.05 -0.20 1.95 0.10 1.65 0.55 8.65 1 15.50 0.45 6.90 1 12.70 1.25 12.95 0.25 0.30 0.45 -0.05 0.45 -0.90 0 -0.75 0.20 -1.25 0.50 -1.05 0.30 0.15 0.50 1.90 0.50 3.80 0 2.20 -0.20 3.40 -0.50 3.20 -0.25 -0.15 -0.50 -0.80 -0.50 -1.35 0 -0.60 -0.15 -0.90 -0.30 -0.75 -0.35 0.35 0.50 13.60 1.40 21.75 0.30 2.80 0.45 5.25 0.30 5.35 -0.15 0.15 -0.85 -0.90 -1.55 -2.35z"/>
  <path d="M104.30 143.80 c-0.20 -0.90 -0.10 -2.20 0.15 -2.85 0.40 -1 0.50 -0.65 0.50 1.70 0.05 3.20 -0.20 3.65 -0.65 1.15z"/>
  <path d="M292.50 90 c-0.65 -0.45 -0.65 -0.50 0 -0.50 0.40 0 1.10 0.25 1.50 0.50 0.65 0.45 0.65 0.50 0 0.50 -0.40 0 -1.10 -0.25 -1.50 -0.50z"/>
 </g>
</svg>